<svg id="Layer_1" data-name="Layer 1" xmlns="http://www.w3.org/2000/svg" xmlns:xlink="http://www.w3.org/1999/xlink" viewBox="0 0 55.63 50.07"><defs><style>.cls-1,.cls-3{fill:none;}.cls-2{clip-path:url(#clip-path);}.cls-3{stroke:#000;stroke-miterlimit:10;stroke-width:0.07px;}</style><clipPath id="clip-path" transform="translate(-4.85 -3.76)"><rect class="cls-1" x="-1087.77" y="-287.34" width="1280" height="720"/></clipPath></defs><g class="cls-2"><line class="cls-3" x1="0.01" y1="0.03" x2="55.61" y2="0.03"/><line class="cls-3" x1="0.01" y1="50.03" x2="55.61" y2="50.03"/></g><g class="cls-2"><rect x="9.03" y="42.5" width="1.5" height="5.82"/><path d="M14.63,44a.92.92,0,1,0,.9.92.9.9,0,0,0-.9-.92" transform="translate(-4.85 -3.76)"/><polygon points="5.74 40.43 0 40.43 0 41.77 2.13 41.77 2.13 48.32 3.62 48.32 3.62 41.77 5.74 41.77 5.74 40.43"/><path d="M11.36,47.24v-1H9.86v5.83h1.5V48.6c0-.64.41-1,1-1h.82V46.26h-.7a1.11,1.11,0,0,0-1.16,1" transform="translate(-4.85 -3.76)"/><path d="M43.92,44a.92.92,0,1,0,.9.92.9.9,0,0,0-.9-.92" transform="translate(-4.85 -3.76)"/><polygon points="34.79 46.73 33.46 42.5 31.88 42.5 33.88 48.32 35.68 48.32 37.69 42.5 36.12 42.5 34.79 46.73"/><rect x="38.32" y="42.5" width="1.5" height="5.82"/><path d="M48.53,48.67l-.87-.24c-.58-.15-.8-.33-.8-.63s.31-.51.76-.51a.71.71,0,0,1,.77.64v0h1.38v0c0-1-.86-1.76-2.15-1.76s-2.19.71-2.19,1.68a1.63,1.63,0,0,0,1.38,1.57l.84.23c.63.18.87.37.87.72s-.34.62-.85.62a.81.81,0,0,1-.88-.83v0H45.32v0a2.11,2.11,0,0,0,2.34,2A2.07,2.07,0,0,0,50,50.25c0-.55-.25-1.27-1.42-1.58" transform="translate(-4.85 -3.76)"/><path d="M19.5,46.17a2.92,2.92,0,0,0-1.77.59v-.5h-1.5V53.8h1.5V51.59a2.86,2.86,0,0,0,1.77.6,3,3,0,1,0,0-6m-.13,4.64A1.64,1.64,0,1,1,21,49.18a1.63,1.63,0,0,1-1.63,1.63" transform="translate(-4.85 -3.76)"/><path d="M53.41,46.17a3,3,0,1,0,3,3,3,3,0,0,0-3-3m0,4.64a1.64,1.64,0,1,1,1.64-1.63,1.64,1.64,0,0,1-1.64,1.63" transform="translate(-4.85 -3.76)"/><path d="M27.82,46.76a2.92,2.92,0,0,0-1.77-.59,3,3,0,0,0,0,6,2.92,2.92,0,0,0,1.77-.59v.49h1.5V46.26h-1.5Zm0,2.42a1.64,1.64,0,1,1-1.64-1.64A1.63,1.63,0,0,1,27.82,49.18Z" transform="translate(-4.85 -3.76)"/><path d="M60.47,47.66V46.27h-.76a1.11,1.11,0,0,0-1.16,1v-1h-1.5v5.83h1.5V48.61c0-.64.41-1,1-1Z" transform="translate(-4.85 -3.76)"/><path d="M34.72,46.76A2.92,2.92,0,0,0,33,46.17a3,3,0,0,0,0,6,2.86,2.86,0,0,0,1.77-.6v.5h1.5v-7.9h-1.5Zm-1.63,4.05a1.64,1.64,0,1,1,1.63-1.63,1.63,1.63,0,0,1-1.63,1.63" transform="translate(-4.85 -3.76)"/><path d="M18.76,29.4a4.93,4.93,0,1,0-4.93-4.93,4.92,4.92,0,0,0,4.93,4.93" transform="translate(-4.85 -3.76)"/><path d="M46.56,29.4a4.93,4.93,0,1,0-4.93-4.93,4.93,4.93,0,0,0,4.93,4.93" transform="translate(-4.85 -3.76)"/><path d="M4.87,24.47a13.9,13.9,0,0,0,23.34,10.2l4.45,4.84,4.46-4.84A13.9,13.9,0,1,0,55.93,14.2l4.55-4.95H50.4A31.53,31.53,0,0,0,15,9.25H4.85L9.4,14.2A13.84,13.84,0,0,0,4.87,24.47m51.09,0a9.41,9.41,0,1,1-9.4-9.4,9.4,9.4,0,0,1,9.4,9.4M32.66,8.34A27.06,27.06,0,0,1,43.1,10.43C37.17,12.7,32.66,18,32.66,24.2c0-6.19-4.5-11.5-10.43-13.77A27,27,0,0,1,32.66,8.34m-13.9,6.73a9.41,9.41,0,1,1-9.4,9.4,9.4,9.4,0,0,1,9.4-9.4" transform="translate(-4.85 -3.76)"/></g></svg>